<?xml version="1.0" encoding="UTF-8"?>
<svg xmlns="http://www.w3.org/2000/svg" xmlns:xlink="http://www.w3.org/1999/xlink" width="40px" height="40px" viewBox="0 0 40 40" version="1.1">
<g id="surface1">
<path style=" stroke:none;fill-rule:nonzero;fill:rgb(74.117647%,74.901961%,76.078431%);fill-opacity:1;" d="M 40 20 C 40 8.953125 31.046875 0 20 0 C 8.953125 0 0 8.953125 0 20 C 0 29.375 6.460938 37.25 15.171875 39.414062 L 15.171875 26.109375 L 11.046875 26.109375 L 11.046875 20 L 15.171875 20 L 15.171875 17.367188 C 15.171875 10.5625 18.25 7.40625 24.9375 7.40625 C 26.203125 7.40625 28.390625 7.65625 29.289062 7.90625 L 29.289062 13.4375 C 28.820312 13.390625 28 13.359375 26.976562 13.359375 C 23.695312 13.359375 22.429688 14.601562 22.429688 17.828125 L 22.429688 20 L 28.960938 20 L 27.835938 26.109375 L 22.421875 26.109375 L 22.421875 39.851562 C 32.328125 38.65625 40 30.226562 40 20 Z M 40 20 "/>
</g>
</svg>
