<?xml version="1.0" encoding="UTF-8"?>
<svg xmlns="http://www.w3.org/2000/svg" xmlns:xlink="http://www.w3.org/1999/xlink" width="16px" height="16px" viewBox="0 0 16 16" version="1.1">
<g id="surface1">
<path style=" stroke:none;fill-rule:nonzero;fill:rgb(0%,0%,0%);fill-opacity:1;" d="M 16 8 C 16 3.582031 12.417969 0 8 0 C 3.582031 0 0 3.582031 0 8 C 0 11.75 2.585938 14.898438 6.070312 15.765625 L 6.070312 10.445312 L 4.417969 10.445312 L 4.417969 8 L 6.070312 8 L 6.070312 6.945312 C 6.070312 4.226562 7.300781 2.960938 9.976562 2.960938 C 10.480469 2.960938 11.355469 3.0625 11.714844 3.164062 L 11.714844 5.375 C 11.527344 5.355469 11.199219 5.34375 10.789062 5.34375 C 9.476562 5.34375 8.972656 5.839844 8.972656 7.132812 L 8.972656 8 L 11.585938 8 L 11.132812 10.445312 L 8.96875 10.445312 L 8.96875 15.941406 C 12.929688 15.460938 16 12.089844 16 8 Z M 16 8 "/>
</g>
</svg>
